HIERARCHY
ROOT Hips
{
	OFFSET 0.000000 0.000000 0.000000
	CHANNELS 6 Xposition Yposition Zposition Xrotation Yrotation Zrotation
	JOINT LeftUpLeg_virtual
	{
		OFFSET 0.000000 0.000000 0.000000
		CHANNELS 3 Xrotation Yrotation Zrotation
		JOINT LeftUpLeg
		{
			OFFSET 10.205400 -3.823500 0.155100
			CHANNELS 3 Xrotation Yrotation Zrotation
			JOINT LeftLeg
			{
				OFFSET 0.708757 -12.982077 0.567790
				CHANNELS 3 Xrotation Yrotation Zrotation
				JOINT LeftFoot
				{
					OFFSET -0.708756 -10.717838 -2.184338
					CHANNELS 3 Xrotation Yrotation Zrotation
					JOINT LeftToeBase
					{
						OFFSET 0.108149 -7.191104 7.560241
						CHANNELS 3 Xrotation Yrotation Zrotation
						JOINT LeftToe_End
						{
							OFFSET 0.070230 0.081724 4.490308
							CHANNELS 3 Xrotation Yrotation Zrotation
							End Site
							{
								OFFSET 0 0 0
							}
						}
					}
				}
			}
		}
	}
	JOINT RightUpLeg_virtual
	{
		OFFSET 0.000000 0.000000 0.000000
		CHANNELS 3 Xrotation Yrotation Zrotation
		JOINT RightUpLeg
		{
			OFFSET -10.205400 -3.823500 0.005500
			CHANNELS 3 Xrotation Yrotation Zrotation
			JOINT RightLeg
			{
				OFFSET -0.708756 -12.982134 0.610632
				CHANNELS 3 Xrotation Yrotation Zrotation
				JOINT RightFoot
				{
					OFFSET 0.708754 -10.717769 -1.945823
					CHANNELS 3 Xrotation Yrotation Zrotation
					JOINT RightToeBase
					{
						OFFSET -0.108140 -7.191069 7.372968
						CHANNELS 3 Xrotation Yrotation Zrotation
						JOINT RightToe_End
						{
							OFFSET -0.070227 0.081735 4.479403
							CHANNELS 3 Xrotation Yrotation Zrotation
							End Site
							{
								OFFSET 0 0 0
							}
						}
					}
				}
			}
		}
	}
	JOINT Spine_virtual
	{
		OFFSET 0.000000 0.000000 0.000000
		CHANNELS 3 Xrotation Yrotation Zrotation
		JOINT Spine
		{
			OFFSET 0.000000 6.876099 0.125700
			CHANNELS 3 Xrotation Yrotation Zrotation
			JOINT Spine1
			{
				OFFSET 0.000000 5.730043 0.104720
				CHANNELS 3 Xrotation Yrotation Zrotation
				JOINT Spine1_split
				{
					OFFSET 0.000000 5.730043 0.104720
					CHANNELS 3 Xrotation Yrotation Zrotation
					JOINT Spine2
					{
						OFFSET 0.000000 5.730043 0.104720
						CHANNELS 3 Xrotation Yrotation Zrotation
						JOINT Neck_virtual
						{
							OFFSET 0.000000 0.000000 0.000000
							CHANNELS 3 Xrotation Yrotation Zrotation
							JOINT Neck
							{
								OFFSET 0.000000 10.314075 0.188496
								CHANNELS 3 Xrotation Yrotation Zrotation
								JOINT Head
								{
									OFFSET 0.000000 7.643700 -2.377400
									CHANNELS 3 Xrotation Yrotation Zrotation
									JOINT HeadTop_End
									{
										OFFSET 0.000000 43.788605 -13.619600
										CHANNELS 3 Xrotation Yrotation Zrotation
										End Site
										{
											OFFSET 0 0 0
										}
									}
								}
							}
						}
						JOINT LeftShoulder_virtual
						{
							OFFSET 0.000000 0.000000 0.000000
							CHANNELS 3 Xrotation Yrotation Zrotation
							JOINT LeftShoulder
							{
								OFFSET 2.196100 4.412489 0.087492
								CHANNELS 3 Xrotation Yrotation Zrotation
								JOINT LeftShoulder_split
								{
									OFFSET 2.196100 4.412489 0.087492
									CHANNELS 3 Xrotation Yrotation Zrotation
									JOINT LeftArm
									{
										OFFSET 8.771219 -2.981674 -0.026999
										CHANNELS 3 Xrotation Yrotation Zrotation
										JOINT LeftForeArm
										{
											OFFSET 8.512804 0.000000 -0.000000
											CHANNELS 3 Xrotation Yrotation Zrotation
											JOINT LeftHand
											{
												OFFSET 18.484802 0.000000 -0.000000
												CHANNELS 3 Xrotation Yrotation Zrotation
												End Site
												{
													OFFSET 0 0 0
												}
											}
										}
									}
								}
							}
						}
						JOINT RightShoulder_virtual
						{
							OFFSET 0.000000 0.000000 0.000000
							CHANNELS 3 Xrotation Yrotation Zrotation
							JOINT RightShoulder
							{
								OFFSET -2.196100 4.412496 0.070690
								CHANNELS 3 Xrotation Yrotation Zrotation
								JOINT RightShoulder_split
								{
									OFFSET -2.196100 4.412496 0.070690
									CHANNELS 3 Xrotation Yrotation Zrotation
									JOINT RightArm
									{
										OFFSET -8.771282 -2.981682 -0.094208
										CHANNELS 3 Xrotation Yrotation Zrotation
										JOINT RightForeArm
										{
											OFFSET -8.494598 0.000000 0.000000
											CHANNELS 3 Xrotation Yrotation Zrotation
											JOINT RightHand
											{
												OFFSET -18.483803 0.000000 0.000001
												CHANNELS 3 Xrotation Yrotation Zrotation
												End Site
												{
													OFFSET 0 0 0
												}
											}
										}
									}
								}
							}
						}
					}
				}
			}
		}
	}
}
MOTION
Frames: 8
Frame Time: 0.03333333
1.016585 29.627655 -0.810301 0.000000 0.000000 0.000000 8.129633 -66.833278 9.776933 -29.995653 15.454802 28.679913 35.349525 -8.895151 0.410384 -16.053866 -2.099526 -21.686161 -0.111429 -0.293169 -0.037295 0.000000 0.000000 0.000000 6.093977 -66.352132 8.684335 -22.646144 -21.816268 -39.656594 31.776041 11.039034 -1.907579 -22.012166 -3.330052 25.451457 5.702963 0.377954 0.622171 0.000000 0.000000 0.000000 7.887281 -64.499976 9.380905 12.250300 -0.623846 -4.894859 7.364535 1.709762 -0.992977 0.559093 3.875163 -0.668691 0.000000 0.000000 0.000000 9.743691 1.797353 -2.118916 7.076763 4.941063 4.782855 -24.614255 52.820394 18.731246 0.000000 0.000000 0.000000 8.996842 1.133463 -1.058069 5.479244 -1.577754 -12.616691 -2.837672 -4.525571 2.502590 -34.197558 14.034195 -27.503099 6.717509 -53.771067 4.192943 0.000000 0.000000 0.000000 7.762722 1.694727 -0.598366 -7.962636 7.863303 15.025294 3.211976 0.586433 -1.742413 17.390715 -6.519945 33.003095 -19.797518 39.525711 20.095916 0.000000 0.000000 0.000000 
0.927086 29.708611 -0.662619 0.000000 0.000000 0.000000 7.705789 -66.741562 9.130360 -30.189006 15.066137 29.027781 35.841769 -8.603633 0.538919 -16.027133 -2.158805 -21.918526 -0.080884 -0.281356 -0.049971 0.000000 0.000000 0.000000 5.962546 -66.667673 8.329524 -21.684382 -21.508078 -38.973094 30.418285 11.080044 -1.839992 -21.250670 -3.007564 26.274129 4.062582 0.335045 0.643025 0.000000 0.000000 0.000000 7.704965 -64.775738 8.993150 12.284728 -0.640021 -4.553606 7.382356 1.714706 -1.450484 0.099523 3.197671 -0.531719 0.000000 0.000000 0.000000 8.809714 1.818757 -2.309172 7.478651 4.963859 4.607027 -24.276174 54.025126 17.925739 0.000000 0.000000 0.000000 8.662525 1.161810 -1.532075 5.394883 -2.126292 -12.922718 -3.105947 -2.804240 2.114129 -33.234321 16.500525 -26.885967 7.406616 -51.494480 4.680995 0.000000 0.000000 0.000000 7.330508 1.863757 -0.792927 -9.197249 6.495067 15.123994 3.940058 -0.296110 -0.434571 15.283190 -5.536326 31.415636 -18.656406 38.907794 19.780518 0.000000 0.000000 0.000000 
0.799089 29.817320 -0.480740 0.000000 0.000000 0.000000 6.554486 -67.253745 7.674273 -30.241629 14.491747 29.706036 36.668649 -7.960398 0.668738 -15.994928 -2.030261 -21.972056 -0.158122 -0.243124 -0.070166 0.000000 0.000000 0.000000 5.249609 -67.469066 7.245834 -20.307319 -21.220602 -38.219102 28.701394 11.310109 -1.568627 -20.514564 -2.514001 26.936009 3.013089 0.319549 0.697531 0.000000 0.000000 0.000000 6.911104 -65.234017 7.892579 12.037230 -0.679684 -4.127047 6.766211 1.403263 -1.564499 0.278359 2.744187 -0.238867 0.000000 0.000000 0.000000 7.479908 1.383123 -2.046311 7.545528 4.931830 3.753956 -22.028895 56.294324 14.560360 0.000000 0.000000 0.000000 7.581489 0.829465 -1.622948 4.928067 -3.414171 -14.523065 -3.934417 -1.771607 2.775497 -28.261163 20.588722 -26.293841 6.605013 -48.915616 4.171173 0.000000 0.000000 0.000000 6.383479 1.606637 -0.694216 -11.304861 3.957117 14.873623 4.569676 -1.150737 0.128395 13.472093 -9.936176 32.628640 -17.550636 40.945475 19.502972 0.000000 0.000000 0.000000 
0.652288 29.885550 -0.334030 0.000000 0.000000 0.000000 4.695360 -68.090538 5.520077 -30.276542 13.828103 30.532916 37.869390 -7.073210 0.817277 -16.059646 -1.811585 -21.838493 -0.271372 -0.184788 -0.105453 0.000000 0.000000 0.000000 3.741745 -68.312390 5.352661 -18.929816 -21.038289 -37.663278 27.282303 11.574638 -1.161803 -20.067337 -2.061072 27.347198 2.671493 0.346620 0.722475 0.000000 0.000000 0.000000 5.662484 -65.716283 6.252972 11.532194 -0.768645 -3.680124 5.647460 0.883432 -1.366922 0.364018 1.829606 0.235331 0.000000 0.000000 0.000000 5.985028 0.611498 -1.440184 7.179116 4.918035 2.455254 -17.287187 58.891284 8.602681 0.000000 0.000000 0.000000 6.073016 0.247987 -1.373033 4.157634 -4.980028 -17.020440 -4.510428 -1.506923 4.358987 -20.466035 24.976112 -26.160156 5.196220 -47.778276 3.385472 0.000000 0.000000 0.000000 5.142705 1.029769 -0.346646 -14.050230 0.927410 13.481870 4.241092 -1.061952 -0.251202 12.471638 -19.612895 36.794437 -16.928938 46.895092 19.344259 0.000000 0.000000 0.000000 
0.519213 29.859936 -0.171926 0.000000 0.000000 0.000000 2.464938 -68.681719 3.049880 -30.445811 13.096238 31.299574 39.469215 -6.130297 0.995693 -16.214676 -1.743765 -21.655839 -0.381878 -0.123896 -0.108280 0.000000 0.000000 0.000000 1.810902 -68.619291 3.065142 -17.838094 -21.051382 -37.463075 26.791560 11.771436 -0.803447 -20.126735 -1.943318 27.563514 2.208226 0.414367 0.622062 0.000000 0.000000 0.000000 4.255502 -66.061918 4.378287 10.774039 -0.862312 -3.259162 4.327373 0.302237 -0.929077 0.605236 0.832604 0.197208 0.000000 0.000000 0.000000 4.591453 -0.285872 -0.680539 6.245860 4.975663 0.909281 -10.119977 60.814399 0.528103 0.000000 0.000000 0.000000 4.377299 -0.371150 -0.909587 3.176340 -6.375799 -19.552339 -4.170176 -1.890415 6.427688 -11.495029 28.617468 -26.840152 4.101639 -48.411787 2.883213 0.000000 0.000000 0.000000 3.863053 0.328562 0.064084 -17.270319 -2.150363 10.221061 2.759820 -0.091707 -0.479696 11.948498 -33.668441 43.112557 -18.679516 58.717804 21.036844 0.000000 0.000000 0.000000 
0.428854 29.700182 -0.058746 0.000000 0.000000 0.000000 0.642764 -68.541549 1.039584 -30.954004 12.198467 31.779931 41.436692 -5.287369 1.227359 -16.316094 -2.082447 -21.543846 -0.546398 -0.076654 -0.002141 0.000000 0.000000 0.000000 0.341059 -67.982143 1.276953 -17.097019 -21.232688 -37.626570 27.421514 11.905814 -0.626814 -20.809411 -2.294498 27.532863 1.342989 0.514322 0.360544 0.000000 0.000000 0.000000 3.145893 -65.793491 2.859979 9.838907 -0.825954 -2.891494 3.054328 -0.163560 -0.465891 0.893008 0.344430 -0.224369 0.000000 0.000000 0.000000 3.536073 -1.017966 -0.009357 4.963007 4.924904 -0.664840 -1.697656 61.456744 -8.116261 0.000000 0.000000 0.000000 2.851526 -0.807565 -0.385045 2.231651 -7.151909 -21.274183 -3.571409 -2.031366 7.743870 -3.296689 29.275144 -27.921777 3.624948 -50.705105 2.792986 0.000000 0.000000 0.000000 2.788068 -0.211847 0.342777 -20.869667 -4.627919 4.188321 0.342581 1.218096 0.646833 10.650299 -49.359919 49.605396 -35.915317 76.814835 37.549928 0.000000 0.000000 0.000000 
0.397476 29.435947 -0.035158 0.000000 0.000000 0.000000 -0.298038 -67.501421 -0.014138 -31.845986 11.050393 31.876688 43.473888 -4.647686 1.506642 -16.237176 -2.923672 -21.654835 -0.744797 -0.046617 0.265548 0.000000 0.000000 0.000000 -0.314903 -66.469325 0.424391 -16.972624 -21.605090 -38.197720 29.348681 11.955551 -0.626496 -22.067240 -3.131559 27.027209 0.961501 0.639473 0.055625 0.000000 0.000000 0.000000 2.598084 -64.814575 2.032896 8.817609 -0.520989 -2.604774 2.051227 -0.361399 -0.153546 0.928483 0.433785 -0.471348 0.000000 0.000000 0.000000 2.955165 -1.370805 0.395683 3.502445 4.864952 -1.845919 5.848149 60.816783 -15.036632 0.000000 0.000000 0.000000 1.649318 -0.854011 -0.031804 1.458228 -7.128490 -21.690222 -3.005871 -1.787074 7.880607 2.338133 25.682114 -28.001460 4.104452 -53.612593 3.298097 0.000000 0.000000 0.000000 2.079048 -0.466369 0.295777 -24.493989 -5.605781 -4.400995 -2.477482 0.996102 3.385159 4.459413 -64.094085 51.341207 -155.370657 75.669958 156.059113 0.000000 0.000000 0.000000 
0.448121 29.114716 -0.065102 0.000000 0.000000 0.000000 -0.168699 -65.680820 0.027260 -33.012732 9.591274 31.457785 45.146239 -4.121937 1.747459 -16.020811 -4.122219 -21.904061 -0.764071 -0.036767 0.640771 0.000000 0.000000 0.000000 -0.235877 -64.363263 0.450446 -17.615114 -22.138648 -39.192011 32.383102 11.905088 -0.764819 -23.554519 -4.347263 25.989975 1.468290 0.783887 -0.190221 0.000000 0.000000 0.000000 2.612582 -63.135175 1.926706 7.830639 0.207661 -2.405057 1.503345 -0.194543 -0.087785 0.772483 1.033289 -0.401183 0.000000 0.000000 0.000000 2.886015 -1.259758 0.417018 2.026245 4.751047 -2.389674 10.798316 59.208239 -18.748237 0.000000 0.000000 0.000000 0.869748 -0.429033 0.019003 0.882505 -6.449468 -20.586641 -2.197535 -0.896588 6.659653 4.623057 17.627588 -26.140826 4.703552 -55.863673 3.867971 0.000000 0.000000 0.000000 1.764233 -0.371384 -0.172871 -27.488629 -4.462578 -14.248712 -3.847113 -1.297631 5.910535 -19.530501 -73.906540 34.324166 -171.591742 56.470160 171.497772 0.000000 0.000000 0.000000 
